<svg xmlns="http://www.w3.org/2000/svg" version="1.1" xmlns:xlink="http://www.w3.org/1999/xlink" xmlns:svgjs="http://svgjs.dev/svgjs" viewBox="0 0 10.85416259765625 10.94234422159038"><g transform="matrix(0.8571428571428571,0,0,0.8571428571428571,1.5505946568080362,8.485450877358478)"><g transform="matrix(1,0,0,1,0,0)" clip-path="url(#SvgjsClipPath15131)"><g clip-path="url(#SvgjsClipPath151292b439721-db5a-4171-9097-3a14c39d32d9)"><path d=" M 6.932819171171438 -7.08478438994826 C 6.288937719826187 -7.7286658412935125 5.43157685680497 -8.083317121981004 4.5225677490234375 -8.083317121981004 C 3.613558641241905 -8.083317121981004 2.756197778220688 -7.7286658412935125 2.1123163268754364 -7.08478438994826 C 1.4684348755301846 -6.440902938603009 1.1137835948426928 -5.583542075581792 1.1137835948426928 -4.6745329678002605 C 1.1137835948426928 -3.765523860018728 1.4684348755301846 -2.9081629969975102 2.1123163268754364 -2.264281545652259 L 4.126597872527694 -0.25 L 4.291872255760699 -2.725672532177734 L 3.4138520948353563 -3.3385650366667967 L 3.4138520948353563 -6.268742122735294 L 2.9800068388487166 -6.268742122735294 L 2.9800068388487166 -3.1113127597214127 L 3.8408109181872887 -2.5087499041844126 L 3.7547305102534314 -1.2347598667633264 L 2.418762579119968 -2.5707277978967893 C 1.857518319391219 -3.1319720576255383 1.5476288508293332 -3.8791499984914193 1.5476288508293332 -4.674532967800259 C 1.5476288508293332 -5.469915937109099 1.857518319391219 -6.217093877974979 2.418762579119968 -6.778338137703728 C 2.9800068388487166 -7.339582397432477 3.727184779714597 -7.649471865994363 4.5225677490234375 -7.649471865994363 C 5.317950718332277 -7.649471865994363 6.065128659198159 -7.339582397432477 6.626372918926908 -6.778338137703728 C 7.187617178655657 -6.217093877974979 7.497506647217543 -5.469915937109099 7.497506647217543 -4.674532967800259 C 7.497506647217543 -3.8791499984914193 7.187617178655657 -3.1319720576255383 6.626372918926908 -2.5707277978967893 L 5.290404987793444 -1.2347598667633255 L 5.204324579859588 -2.5087499041844126 L 6.065128659198159 -3.111312759721412 L 6.065128659198159 -6.268742122735294 L 5.631283403211519 -6.268742122735294 L 5.631283403211519 -3.3385650366667967 L 4.753263242286176 -2.7256725321777324 L 4.918537625519181 -0.25 L 6.932819171171438 -2.264281545652259 C 7.5767006225166895 -2.9081629969975102 7.931351903204181 -3.765523860018728 7.931351903204181 -4.6745329678002605 C 7.931351903204181 -5.583542075581792 7.5767006225166895 -6.440902938603009 6.932819171171438 -7.08478438994826 Z" fill="#ffffff" transform="matrix(1,0,0,1,0,0)" fill-rule="nonzero"></path></g><g clip-path="url(#SvgjsClipPath151292b439721-db5a-4171-9097-3a14c39d32d9)"><path d=" M 3.861470216091414 -6.268742122735294 L 4.2953154720780535 -6.268742122735294 L 4.2953154720780535 -3.875706782174066 L 3.861470216091414 -3.875706782174066 Z" fill="#ffffff" transform="matrix(1,0,0,1,0,0)" fill-rule="nonzero"></path></g><g clip-path="url(#SvgjsClipPath151292b439721-db5a-4171-9097-3a14c39d32d9)"><path d=" M 4.746376809651466 -6.268742122735294 L 5.180222065638107 -6.268742122735294 L 5.180222065638107 -3.875706782174066 L 4.746376809651466 -3.875706782174066 Z" fill="#ffffff" transform="matrix(1,0,0,1,0,0)" fill-rule="nonzero"></path></g></g><g><path d=" M 0.87 0.09375 Q 0.9825 0.1875 0.9825 0.354 Q 0.9825 0.519 0.87 0.61275 Q 0.7575000000000001 0.7065 0.5595 0.7065 L 0.2595 0.7065 L 0.2595 1.05 L 0.183 1.05 L 0.183 0 L 0.5595 0 Q 0.7575000000000001 0 0.87 0.09375 M 0.8160000000000001 0.5640000000000001 Q 0.9045 0.49050000000000005 0.9045 0.354 Q 0.9045 0.21750000000000003 0.8160000000000001 0.14325 Q 0.7275 0.06900000000000006 0.5595 0.06900000000000006 L 0.2595 0.06900000000000006 L 0.2595 0.6375 L 0.5595 0.6375 Q 0.7275 0.6375 0.8160000000000001 0.5640000000000001 M 1.83756591796875 0.7545000000000001 L 1.22856591796875 0.7545000000000001 L 1.09506591796875 1.05 L 1.01256591796875 1.05 L 1.49556591796875 0 L 1.5720659179687502 0 L 2.05506591796875 1.05 L 1.97256591796875 1.05 L 1.83756591796875 0.7545000000000001 M 1.80906591796875 0.6900000000000001 L 1.53306591796875 0.08400000000000007 L 1.25856591796875 0.6900000000000001 L 1.80906591796875 0.6900000000000001 M 3.1005915527343753 0 L 3.1005915527343753 1.05 L 3.037591552734375 1.05 L 2.322091552734375 0.138 L 2.322091552734375 1.05 L 2.245591552734375 1.05 L 2.245591552734375 0 L 2.310091552734375 0 L 3.024091552734375 0.912 L 3.024091552734375 0 L 3.1005915527343753 0 M 3.66763037109375 0.06900000000000006 L 3.28963037109375 0.06900000000000006 L 3.28963037109375 0 L 4.12213037109375 0 L 4.12213037109375 0.06900000000000006 L 3.74413037109375 0.06900000000000006 L 3.74413037109375 1.05 L 3.66763037109375 1.05 L 3.66763037109375 0.06900000000000006 M 5.04011279296875 1.05 L 4.78961279296875 0.6990000000000001 Q 4.73411279296875 0.7065 4.68761279296875 0.7065 L 4.38761279296875 0.7065 L 4.38761279296875 1.05 L 4.31111279296875 1.05 L 4.31111279296875 0 L 4.68761279296875 0 Q 4.88561279296875 0 4.99811279296875 0.09375 Q 5.11061279296875 0.1875 5.11061279296875 0.354 Q 5.11061279296875 0.47850000000000004 5.04686279296875 0.56325 Q 4.98311279296875 0.648 4.86461279296875 0.6825000000000001 L 5.12711279296875 1.05 L 5.04011279296875 1.05 M 4.68761279296875 0.639 Q 4.85561279296875 0.639 4.94411279296875 0.5647500000000001 Q 5.03261279296875 0.49050000000000005 5.03261279296875 0.354 Q 5.03261279296875 0.21750000000000003 4.94411279296875 0.14325 Q 4.85561279296875 0.06900000000000006 4.68761279296875 0.06900000000000006 L 4.38761279296875 0.06900000000000006 L 4.38761279296875 0.639 L 4.68761279296875 0.639 M 5.70005419921875 0.6885000000000001 L 5.70005419921875 1.05 L 5.62355419921875 1.05 L 5.62355419921875 0.6885000000000001 L 5.20055419921875 0 L 5.28455419921875 0 L 5.66405419921875 0.6180000000000001 L 6.04355419921875 0 L 6.12305419921875 0 L 5.70005419921875 0.6885000000000001 M 6.975010986328125 0.09375 Q 7.087510986328125 0.1875 7.087510986328125 0.354 Q 7.087510986328125 0.519 6.975010986328125 0.61275 Q 6.862510986328125 0.7065 6.664510986328125 0.7065 L 6.364510986328125 0.7065 L 6.364510986328125 1.05 L 6.288010986328125 1.05 L 6.288010986328125 0 L 6.664510986328125 0 Q 6.862510986328125 0 6.975010986328125 0.09375 M 6.921010986328125 0.5640000000000001 Q 7.009510986328125 0.49050000000000005 7.009510986328125 0.354 Q 7.009510986328125 0.21750000000000003 6.921010986328125 0.14325 Q 6.832510986328125 0.06900000000000006 6.664510986328125 0.06900000000000006 L 6.364510986328125 0.06900000000000006 L 6.364510986328125 0.6375 L 6.664510986328125 0.6375 Q 6.832510986328125 0.6375 6.921010986328125 0.5640000000000001 M 7.942576904296875 0.7545000000000001 L 7.333576904296875 0.7545000000000001 L 7.200076904296875 1.05 L 7.117576904296875 1.05 L 7.600576904296875 0 L 7.677076904296875 0 L 8.160076904296876 1.05 L 8.077576904296874 1.05 L 7.942576904296875 0.7545000000000001 M 7.914076904296875 0.6900000000000001 L 7.6380769042968755 0.08400000000000007 L 7.363576904296875 0.6900000000000001 L 7.914076904296875 0.6900000000000001 M 8.3506025390625 0 L 8.4271025390625 0 L 8.4271025390625 0.9810000000000001 L 9.0316025390625 0.9810000000000001 L 9.0316025390625 1.05 L 8.3506025390625 1.05 L 8.3506025390625 0" fill="#ffffff" fill-rule="nonzero"></path></g><g></g></g><defs><clipPath id="SvgjsClipPath15131"><path d=" M 1.1137835948426935 -8.083317121981004 h 6.817568308361488 v 7.833317121981005 h -6.817568308361488 Z"></path></clipPath><clipPath id="SvgjsClipPath151292b439721-db5a-4171-9097-3a14c39d32d9"><path d=" M 1.1137835948426928 -8.083317121981004 L 7.931351903204181 -8.083317121981004 L 7.931351903204181 -0.2499999999999991 L 1.1137835948426924 -0.2499999999999991 Z"></path></clipPath></defs></svg>